# xmcd
#
# Track frame offsets:
#	150
#	11337
#	22053
#	35251
#	51170
#	63674
#	76133
#	86448
#	96322
#	107168
#	120546
#	132213
#	144989
#	157458
#	167360
#	177608
#	188322
#	203771
#	216572
#	229705
#
# Disc length: 3196 seconds
#
# Revision: 0
# Processed by: cddbd v1.5.2PL0 Copyright (c) Steve Scherf et al.
# Submitted via: EasyCDDAExtractor 15.3.0.1
#
DISCID=0f0c7a14
DTITLE=Howlin' Wolf - Absolutely Essential CD 3
DYEAR=1900
DGENRE=Blues
TTITLE0=Red Rooster
TTITLE1=Wang Dang Doodle
TTITLE2=I'm Leaving You
TTITLE3=Change My Way
TTITLE4=Howlin' Blues
TTITLE5=I Better Go Now
TTITLE6=I've Been Abused
TTITLE7=Thr Natchez Burnin'
TTITLE8=Who's Been Talking
TTITLE9=Tell Me
TTITLE10=Howlin' For My Baby
TTITLE11=Back Door Man
TTITLE12=Little Baby
TTITLE13=Down In The Bottom
TTITLE14=Shake For Me
TTITLE15=You'll Be Mine
TTITLE16=Goin' Down Slow
TTITLE17=Just Like I Treat You
TTITLE18=I Ain't Supertitious
TTITLE19=Do The Do
EXTD=
EXTT0=
EXTT1=
EXTT2=
EXTT3=
EXTT4=
EXTT5=
EXTT6=
EXTT7=
EXTT8=
EXTT9=
EXTT10=
EXTT11=
EXTT12=
EXTT13=
EXTT14=
EXTT15=
EXTT16=
EXTT17=
EXTT18=
EXTT19=
PLAYORDER=
